<?xml version="1.0" encoding="UTF-8"?> <svg xmlns="http://www.w3.org/2000/svg" width="121" height="71" viewBox="0 0 121 71" fill="none"><path d="M8.5775 3.36858C8.39447 3.52714 8.21509 3.68964 8.03572 3.84819C7.91491 3.95521 7.80142 4.06222 7.68063 4.16924C7.66598 4.17717 7.65134 4.19301 7.63669 4.20095C7.50125 4.32779 7.36214 4.44668 7.2267 4.5656C6.78375 4.96989 6.34082 5.39399 5.85394 5.73486C5.23894 6.15897 4.52145 6.35318 3.78931 6.25806C3.70876 6.25013 3.62092 6.23031 3.54037 6.21446C3.38297 6.17878 3.23287 6.13122 3.08279 6.07177C2.92537 6.01628 2.77529 5.93701 2.6252 5.84981C2.56663 5.8181 2.5044 5.78639 2.45315 5.74279C2.336 5.67937 2.2335 5.59614 2.12734 5.5129C1.99922 5.40984 1.87842 5.31076 1.76494 5.18788C1.65878 5.10068 1.57092 4.9897 1.48306 4.87872C1.35128 4.70829 1.21217 4.53785 1.07673 4.36345C0.919316 4.16527 0.761906 3.97106 0.608156 3.77288C0.410479 3.52317 0.216462 3.27743 0.0187836 3.02771C-0.00684129 2.99997 -0.0068405 2.98412 0.0224451 2.95637C0.329944 2.69081 0.637442 2.43317 0.944941 2.17159C0.99253 2.13591 1.04012 2.0923 1.08039 2.05664C1.23414 1.92187 1.39155 1.78711 1.5453 1.65235C1.59289 1.60874 1.64047 1.56911 1.69172 1.52551C1.84547 1.39471 1.99556 1.27184 2.14931 1.14104C2.15297 1.14104 2.16395 1.13708 2.16761 1.13312C2.336 1.00628 2.51538 0.915117 2.70208 0.847736C2.86315 0.772427 3.0352 0.732792 3.21092 0.693155C3.25484 0.685228 3.29511 0.677301 3.33904 0.673338C3.47082 0.645593 3.60993 0.629738 3.74537 0.629738H3.92109C4.08215 0.629738 4.24689 0.65352 4.40796 0.689192C4.58368 0.720901 4.75573 0.776392 4.9168 0.8517C5.02296 0.883409 5.12546 0.938899 5.2243 0.990426C5.34144 1.04988 5.45126 1.11726 5.55741 1.19257C5.72947 1.29958 5.88688 1.42246 6.04063 1.55325C6.07358 1.58496 6.11751 1.60874 6.13947 1.65631C6.19804 1.69991 6.25661 1.74748 6.30786 1.799C6.40304 1.89016 6.4909 1.98529 6.58608 2.07645C6.60072 2.08438 6.61171 2.10023 6.58974 2.11213C6.43965 2.21914 6.29322 2.33409 6.13582 2.42526C6.10286 2.46092 6.05527 2.49659 6.01501 2.52434C5.86126 2.63532 5.70751 2.74233 5.55376 2.85333C5.37438 2.98412 5.19501 3.11095 5.01198 3.24572C4.97903 3.2695 4.94243 3.29328 4.90948 3.31706C4.74109 3.432 4.58734 3.56281 4.41895 3.66983C4.28715 3.77684 4.13707 3.82837 3.976 3.82837C3.84421 3.8363 3.71975 3.80062 3.60261 3.7372C3.39761 3.64605 3.2219 3.50731 3.05717 3.34877V3.33292C3.23287 3.21401 3.41225 3.0951 3.58796 2.97619C3.71243 2.88899 3.83689 2.80179 3.96135 2.70667C4.10778 2.59569 4.25056 2.4847 4.39698 2.36977C4.46287 2.31426 4.5251 2.25877 4.59465 2.19933C4.52876 2.15176 4.45921 2.12798 4.39698 2.0923C4.24323 2.03286 4.08582 1.98132 3.92109 1.94565C3.79662 1.9298 3.6685 1.9179 3.54404 1.92583C3.47448 1.9298 3.40859 1.9417 3.3427 1.94961C3.11573 2.00115 2.91439 2.11608 2.71306 2.23499C2.53369 2.3539 2.35797 2.48866 2.18592 2.62344C2.02484 2.76613 1.86011 2.90485 1.69905 3.04754C1.65878 3.0832 1.62217 3.12681 1.57824 3.16249C1.54895 3.19023 1.5453 3.20608 1.57458 3.23779C1.6478 3.32102 1.71003 3.41219 1.77958 3.49543C1.94797 3.68964 2.10905 3.89179 2.28109 4.08203C2.33967 4.14546 2.39823 4.21284 2.45681 4.27625C2.57761 4.39516 2.69109 4.522 2.81922 4.63695C2.90342 4.71225 2.99493 4.77964 3.08279 4.84701C3.57332 5.21166 4.3677 5.36228 4.89849 5.00951C4.89849 5.00951 4.90215 5.00953 4.90582 5.00556C4.92412 4.99763 4.93876 4.98574 4.95707 4.97385C5.18402 4.8153 5.39635 4.64091 5.61599 4.47048C5.7734 4.3357 5.93082 4.20095 6.09188 4.06619C6.15046 4.01466 6.21635 3.95917 6.27491 3.90763C6.49822 3.71342 6.71786 3.51524 6.94116 3.32102C7.11688 3.15455 7.29625 2.99602 7.50858 2.88502C7.53786 2.86917 7.56714 2.85728 7.60375 2.85333C7.64402 2.82558 7.68794 2.82162 7.73188 2.82162C7.96616 2.79784 8.17481 2.86917 8.35419 3.03564C8.43473 3.11095 8.50428 3.19418 8.57384 3.27743C8.59947 3.30518 8.59945 3.32499 8.57017 3.35273V3.36067L8.5775 3.36858Z" fill="white"></path><path d="M11.0647 2.5574H13.3893C13.4588 2.5574 13.5101 2.58119 13.5467 2.62082C13.5869 2.66443 13.6052 2.72388 13.6052 2.79126V3.40561C13.6052 3.48093 13.5832 3.53642 13.5467 3.57605C13.5064 3.61965 13.4551 3.63947 13.3893 3.63947H11.0647V4.86422H13.7224C13.792 4.86422 13.8432 4.88404 13.8799 4.92764C13.9164 4.97124 13.9384 5.03069 13.9384 5.09808V5.7045C13.9384 5.77982 13.9164 5.83531 13.8799 5.87494C13.8432 5.91458 13.7883 5.93836 13.7224 5.93836H10.1349C10.0654 5.93836 10.0141 5.91854 9.97751 5.87494C9.9409 5.83134 9.91895 5.77189 9.91895 5.7045V0.428951C9.91895 0.353643 9.93724 0.298152 9.97751 0.258516C10.0178 0.214917 10.069 0.195099 10.1349 0.195099H13.7224C13.792 0.195099 13.8432 0.21888 13.8799 0.258516C13.9201 0.302116 13.9384 0.36157 13.9384 0.428951V1.03538C13.9384 1.11069 13.9164 1.16618 13.8799 1.20582C13.8395 1.24941 13.7883 1.26924 13.7224 1.26924H11.0647V2.54948V2.5574Z" fill="white"></path><path d="M16.7165 5.94913C16.6579 5.94913 16.6103 5.90156 16.5627 5.81436L14.703 1.91418C14.6811 1.87058 14.6738 1.83095 14.6738 1.79924C14.6738 1.68826 14.7397 1.63277 14.8605 1.63277H15.5962C15.7244 1.63277 15.8085 1.68826 15.8562 1.8032L16.7054 3.74536L17.5548 1.8032C17.6023 1.68826 17.6902 1.63277 17.8147 1.63277H18.5541C18.6823 1.63277 18.7408 1.68826 18.7408 1.79924C18.7408 1.91022 18.7334 1.87454 18.7116 1.91418L16.8519 5.81436C16.8117 5.90156 16.7678 5.94913 16.7054 5.94913H16.7091H16.7165Z" fill="white"></path><path d="M21.0328 5.91673C20.9742 5.91673 20.9266 5.86521 20.8864 5.77008L19.4185 1.90952C19.4037 1.86593 19.3965 1.83422 19.3965 1.80647C19.3965 1.75495 19.4148 1.71531 19.4477 1.67965C19.4807 1.64397 19.5282 1.63207 19.5941 1.63207H20.2897C20.4178 1.63207 20.4983 1.69549 20.5386 1.82234L20.9412 2.96781C21.0182 3.18977 21.2999 3.20563 21.3952 2.99159L21.9625 1.72721C22.0065 1.64 22.0578 1.59245 22.1091 1.59245C22.1602 1.59245 22.2152 1.64 22.2555 1.72721L22.8411 3.01142C22.9364 3.22148 23.2183 3.20563 23.2951 2.98762L23.7123 1.81837C23.7527 1.69153 23.8332 1.62811 23.9614 1.62811H24.6532C24.7191 1.62811 24.763 1.64397 24.7997 1.67568C24.8326 1.70738 24.8509 1.75098 24.8509 1.80251C24.8509 1.85403 24.8435 1.86196 24.8289 1.90557L23.3464 5.77008C23.3134 5.86124 23.2658 5.91277 23.2109 5.91277C23.156 5.91277 23.1047 5.86521 23.0571 5.77801L22.336 4.27977C22.2408 4.08555 21.9845 4.08555 21.8968 4.27977L21.1865 5.77801C21.1426 5.86521 21.095 5.91277 21.0401 5.91277L21.0328 5.91673Z" fill="white"></path><path d="M26.8841 5.82696C26.5584 5.67237 26.2874 5.43852 26.0641 5.11746C25.8262 4.78452 25.709 4.3406 25.709 3.79362C25.709 3.24664 25.8042 2.95731 25.9946 2.61247C26.1849 2.26764 26.4485 2.00604 26.7779 1.81975C27.1074 1.63346 27.4735 1.54229 27.8799 1.54229C28.2862 1.54229 28.5717 1.62554 28.8829 1.79597C29.194 1.96641 29.4502 2.21215 29.648 2.5332C29.7798 2.74327 29.8603 2.94938 29.9042 3.14756C29.9445 3.34574 29.9627 3.57959 29.9627 3.84515C29.9627 4.11071 29.9371 4.04729 29.8822 4.11864C29.8309 4.19395 29.7541 4.22962 29.6552 4.22962H26.7853C26.8365 4.50311 26.9719 4.70129 27.1843 4.82813C27.3966 4.95496 27.6272 5.01838 27.8762 5.01838C28.1251 5.01838 28.2423 4.98667 28.385 4.92721C28.5277 4.86379 28.6486 4.77264 28.762 4.65769C28.8279 4.6022 28.8829 4.57049 28.9377 4.57049C28.9927 4.57049 29.0219 4.58634 29.0696 4.61805L29.5381 4.91928C29.6149 4.96685 29.6552 5.02631 29.6552 5.08972C29.6552 5.15314 29.6332 5.18088 29.5967 5.23637C29.1537 5.77939 28.5753 6.04495 27.8762 6.04495C27.177 6.04495 27.2062 5.96964 26.8804 5.81903H26.8878L26.8841 5.82696ZM27.1403 2.81462C26.9463 2.97316 26.8401 3.16737 26.8146 3.40123H28.8133C28.7987 3.25854 28.7474 3.12774 28.6669 2.99694C28.5864 2.87011 28.4729 2.77101 28.3374 2.69174C28.202 2.61247 28.0409 2.5768 27.8688 2.5768C27.5723 2.5768 27.3307 2.65607 27.1366 2.81462H27.1403Z" fill="white"></path><path d="M32.2229 5.88596C32.1827 5.92162 32.1278 5.9454 32.0655 5.9454H31.425C31.3554 5.9454 31.3041 5.92559 31.2675 5.88199C31.2309 5.83839 31.209 5.77893 31.209 5.71156V0.233853C31.209 0.158544 31.2309 0.103054 31.2675 0.0634176C31.3078 0.0158544 31.3591 0 31.425 0H32.0655C32.1351 0 32.1864 0.019818 32.2229 0.0634176C32.2632 0.107017 32.2815 0.166471 32.2815 0.233853V2.06504C32.3987 1.90253 32.5634 1.77174 32.7757 1.67264C32.988 1.57356 33.2296 1.52599 33.4933 1.52599C33.8959 1.52599 34.251 1.62508 34.5511 1.82326C34.8513 2.02144 35.0893 2.29096 35.2577 2.6358C35.4151 2.9846 35.4956 3.3651 35.4956 3.78128C35.4956 4.19746 35.4151 4.58985 35.2577 4.92676C35.1002 5.26366 34.8696 5.53716 34.5658 5.73534C34.2546 5.93352 33.8996 6.03657 33.4896 6.03657C33.0796 6.03657 32.988 5.98504 32.7648 5.87803C32.5377 5.77101 32.3767 5.6521 32.2779 5.50941V5.72344C32.2779 5.79479 32.2559 5.84235 32.2193 5.88596H32.2229ZM32.5342 4.67309C32.7318 4.89109 32.9954 5.00207 33.3358 5.00207C33.6762 5.00207 33.9251 4.88713 34.1265 4.6612C34.3279 4.43528 34.4304 4.14197 34.4304 3.78128C34.4304 3.42059 34.3315 3.11936 34.1302 2.89343C33.9288 2.66751 33.6653 2.55653 33.3321 2.55653C32.999 2.55653 32.7391 2.66751 32.5377 2.89343C32.3365 3.11936 32.234 3.41663 32.234 3.78128C32.234 4.14593 32.3328 4.45509 32.5305 4.67309H32.5342Z" fill="white"></path><path d="M27.5406 17.1806V23.0469V23.0619V31.9033H18.186C15.7894 31.9033 14.0117 33.6055 14.0117 35.5156C14.0117 37.4257 15.7894 39.1278 18.186 39.1278H27.5406V53.8506C27.5406 55.7607 29.3183 57.4629 31.7148 57.4629C34.1114 57.4629 35.8891 55.7607 35.8891 53.8506V17.1806C35.8891 15.2705 34.1114 13.5684 31.7148 13.5684C29.3183 13.5684 27.5406 15.2705 27.5406 17.1806Z" fill="white"></path><path d="M4.17427 13.5684C6.57083 13.5684 8.34855 15.2705 8.34855 17.1806V53.8506C8.34855 55.7607 6.57083 57.4629 4.17427 57.4629C1.77771 57.4629 0 55.7607 0 53.8506V17.1806C0 15.2705 1.77771 13.5684 4.17427 13.5684Z" fill="white"></path><path d="M71.6298 23.1277V23.1231L71.6295 23.0771V17.6075C71.6295 15.3767 73.4803 13.5684 75.7632 13.5684C78.0463 13.5684 79.8971 15.3767 79.8971 17.6075L79.8973 40.6901C79.8973 46.0097 78.1557 50.1632 75.1364 52.9894C72.1117 55.8205 67.6996 57.4179 62.1735 57.4179C56.6475 57.4179 52.2546 55.8207 49.2484 52.9911C46.2469 50.166 44.5215 46.0124 44.5215 40.6901V17.6075C44.5215 15.3767 46.3722 13.5684 48.6553 13.5684C50.9383 13.5684 52.789 15.3767 52.789 17.6075V41.4847C52.789 43.9946 53.683 46.1898 55.3528 47.7556C57.02 49.3191 59.3793 50.18 62.1735 50.18C65 50.18 67.3773 49.3211 69.0548 47.7576C70.7355 46.1912 71.6298 43.9948 71.6298 41.4847V23.1277Z" fill="white"></path><path fill-rule="evenodd" clip-rule="evenodd" d="M105.308 57.2716C104.07 57.2716 102.832 57.2716 101.594 57.2716C99.3582 57.1649 97.7307 55.544 97.7307 53.7277C97.7307 51.9878 99.2196 50.4308 101.313 50.2057H106.29C108.071 50.2057 109.774 49.8214 111.05 48.8218C112.362 47.7934 113.08 46.2264 113.08 44.1743C113.08 41.9373 112.382 40.3257 111.032 39.3169C109.736 38.3492 108.019 38.0775 106.29 38.0775H95.4989V48.844C94.2536 50.146 93.4863 51.8507 93.4863 53.7277C93.4863 55.0148 93.8471 56.2209 94.4753 57.2716H92.4333C89.9927 57.0783 88.8251 55.6736 88.5206 54.1676L88.457 53.3847V17.047L88.5644 16.2926C88.9365 14.918 90.271 13.7882 92.0129 13.5966L92.2695 13.5684H104.866C109.268 13.5684 112.948 14.7202 115.505 16.643C118.043 18.5523 119.507 21.2421 119.507 24.4627C119.507 26.7677 119.063 28.6115 118.245 30.0557C117.433 31.4897 116.221 32.7392 114.583 33.5115L112.684 34.3696L114.583 35.0321C116.677 35.9317 118.251 37.3448 119.283 38.9023C120.318 40.4627 120.907 42.5515 120.907 45.4829C120.907 49.0599 119.326 51.9711 116.618 54.0122C113.889 56.0691 109.971 57.2716 105.308 57.2716ZM95.4989 19.2456V30.7776H105.774C107.382 30.7776 108.862 30.2671 109.949 29.2893C111.045 28.3037 111.68 26.8982 111.68 25.243C111.68 21.9529 109.157 19.2456 105.774 19.2456H95.4989Z" fill="white"></path></svg> 