<?xml version="1.0" encoding="UTF-8"?> <svg xmlns="http://www.w3.org/2000/svg" width="1440" height="1568" viewBox="0 0 1440 1568" fill="none"><g clip-path="url(#clip0_589_34)"><path opacity="0.5" d="M1533.5 1568C1839.74 1568 2088 1319.74 2088 1013.5C2088 707.258 1839.74 459 1533.5 459C1227.26 459 979 707.258 979 1013.5C979 1319.74 1227.26 1568 1533.5 1568Z" fill="url(#paint0_radial_589_34)"></path><path opacity="0.7" d="M170.5 1049C460.173 1049 695 814.173 695 524.5C695 234.827 460.173 0 170.5 0C-119.173 0 -354 234.827 -354 524.5C-354 814.173 -119.173 1049 170.5 1049Z" fill="url(#paint1_radial_589_34)"></path></g><defs><radialGradient id="paint0_radial_589_34" cx="0" cy="0" r="1" gradientUnits="userSpaceOnUse" gradientTransform="translate(1533.5 1013.5) rotate(90) scale(554.5)"><stop stop-color="#E084FF"></stop><stop offset="1" stop-color="#222348" stop-opacity="0"></stop></radialGradient><radialGradient id="paint1_radial_589_34" cx="0" cy="0" r="1" gradientUnits="userSpaceOnUse" gradientTransform="translate(170.5 524.5) rotate(90) scale(524.5)"><stop stop-color="#1C1D46"></stop><stop offset="1" stop-color="#222348" stop-opacity="0"></stop></radialGradient><clipPath id="clip0_589_34"><rect width="1440" height="1568" fill="white"></rect></clipPath></defs></svg> 