<?xml version="1.0" encoding="UTF-8"?> <svg xmlns="http://www.w3.org/2000/svg" width="428" height="461" viewBox="0 0 428 461" fill="none"><path d="M0.910492 453L151.346 453L229.098 453C337.847 453 426 357.637 426 240C426 122.363 337.847 27.0002 229.098 27.0002L0.910355 27.0002" stroke="url(#paint0_linear_454_176)" stroke-width="2.95894" stroke-miterlimit="10"></path><rect opacity="0.4" x="259.913" y="40.9666" width="54.9128" height="21.7476" rx="7.06799" transform="rotate(-180 259.913 40.9666)" fill="url(#paint1_linear_454_176)"></rect><circle cx="270.534" cy="24.4661" r="24.4661" fill="#7E4E9C"></circle><path d="M282.805 19.491C283.579 19.491 284.207 18.863 284.207 18.0891C284.207 17.3152 283.579 16.6872 282.805 16.6872C282.031 16.6872 281.403 17.3152 281.403 18.0891C281.403 18.863 282.031 19.491 282.805 19.491Z" fill="#99F8B3"></path><path d="M282.047 30.6495C282.566 30.6495 282.987 30.2281 282.987 29.7095C282.987 29.1908 282.566 28.7695 282.047 28.7695C281.529 28.7695 281.107 29.1908 281.107 29.7095C281.107 30.2281 281.529 30.6495 282.047 30.6495Z" fill="#99F8B3"></path><path d="M269.284 28.1373C271.638 28.1373 273.547 26.229 273.547 23.8749C273.547 21.5209 271.638 19.6125 269.284 19.6125C266.93 19.6125 265.022 21.5209 265.022 23.8749C265.022 26.229 266.93 28.1373 269.284 28.1373Z" fill="#99F8B3"></path><path d="M284.737 21.379C284.259 20.751 283.319 20.3297 282.233 20.3297C281.147 20.3297 280.207 20.751 279.729 21.3831" stroke="#3B1A5B" stroke-width="0.505638" stroke-miterlimit="10"></path><path d="M282.21 19.9611C282.984 19.9611 283.612 19.3331 283.612 18.5592C283.612 17.7853 282.984 17.1573 282.21 17.1573C281.436 17.1573 280.808 17.7853 280.808 18.5592C280.808 19.3331 281.436 19.9611 282.21 19.9611Z" stroke="#3B1A5B" stroke-width="0.505638" stroke-miterlimit="10"></path><path d="M283.664 32.5902C283.469 31.9055 282.619 31.4031 281.593 31.4031C280.495 31.4031 279.596 31.9865 279.495 32.7442" stroke="#3B1A5B" stroke-width="0.505638" stroke-miterlimit="10"></path><path d="M281.577 31.1315C282.153 31.1315 282.618 30.6656 282.618 30.0902C282.618 29.5149 282.153 29.049 281.577 29.049C281.002 29.049 280.536 29.5149 280.536 30.0902C280.536 30.6656 281.002 31.1315 281.577 31.1315Z" stroke="#3B1A5B" stroke-width="0.505638" stroke-miterlimit="10"></path><path d="M278.77 37.6993C279.289 37.6993 279.71 37.2785 279.71 36.7593C279.71 36.2402 279.289 35.8193 278.77 35.8193C278.251 35.8193 277.83 36.2402 277.83 36.7593C277.83 37.2785 278.251 37.6993 278.77 37.6993Z" stroke="#99F8B3" stroke-width="0.505638" stroke-miterlimit="10" stroke-linecap="round"></path><path d="M258.475 15.2286C258.721 15.2286 258.92 15.0291 258.92 14.7829C258.92 14.5368 258.721 14.3372 258.475 14.3372C258.228 14.3372 258.029 14.5368 258.029 14.7829C258.029 15.0291 258.228 15.2286 258.475 15.2286Z" stroke="#99F8B3" stroke-width="0.505638" stroke-miterlimit="10"></path><path d="M274.155 10.3301H262.595C261.564 10.3301 260.727 11.1664 260.727 12.198V36.8161C260.727 37.8477 261.564 38.684 262.595 38.684H274.155C275.186 38.684 276.022 37.8477 276.022 36.8161V12.198C276.022 11.1664 275.186 10.3301 274.155 10.3301Z" stroke="#3B1A5B" stroke-width="0.505638" stroke-linecap="round" stroke-linejoin="round"></path><path d="M274.248 14.2968H262.518V34.0974H274.248V14.2968Z" stroke="#3B1A5B" stroke-width="0.505638" stroke-linecap="round" stroke-linejoin="round"></path><path d="M268.118 12.4897H270.411" stroke="#3B1A5B" stroke-width="0.505638" stroke-linecap="round" stroke-linejoin="round"></path><path d="M266.157 12.4897H266.918" stroke="#3B1A5B" stroke-width="0.505638" stroke-linecap="round" stroke-linejoin="round"></path><path d="M268.373 37.4319C268.948 37.4319 269.414 36.9657 269.414 36.3907C269.414 35.8156 268.948 35.3494 268.373 35.3494C267.798 35.3494 267.332 35.8156 267.332 36.3907C267.332 36.9657 267.798 37.4319 268.373 37.4319Z" stroke="#3B1A5B" stroke-width="0.505638" stroke-linecap="round" stroke-linejoin="round"></path><path d="M268.373 28.7654C270.727 28.7654 272.635 26.8571 272.635 24.503C272.635 22.1489 270.727 20.2406 268.373 20.2406C266.019 20.2406 264.11 22.1489 264.11 24.503C264.11 26.8571 266.019 28.7654 268.373 28.7654Z" stroke="#3B1A5B" stroke-width="0.505638" stroke-linecap="round" stroke-linejoin="round"></path><path d="M284.738 21.3792C284.106 22.0396 283.218 22.4529 282.234 22.4529C280.321 22.4529 278.774 20.9011 278.774 18.9927C278.774 17.0844 280.326 15.5326 282.234 15.5326C284.142 15.5326 285.694 17.0844 285.694 18.9927C285.694 19.9206 285.329 20.7593 284.738 21.3833" stroke="#3B1A5B" stroke-width="0.505638" stroke-linecap="round" stroke-linejoin="round"></path><path d="M281.594 33.5018C283.285 33.5018 284.657 32.1305 284.657 30.4388C284.657 28.7471 283.285 27.3757 281.594 27.3757C279.902 27.3757 278.53 28.7471 278.53 30.4388C278.53 32.1305 279.902 33.5018 281.594 33.5018Z" stroke="#3B1A5B" stroke-width="0.505638" stroke-linecap="round" stroke-linejoin="round"></path><path d="M272.38 23.0444L278.77 20.2406" stroke="#3B1A5B" stroke-width="0.505638" stroke-linecap="round" stroke-linejoin="round"></path><path d="M272.25 26.2817L278.77 29.2678" stroke="#3B1A5B" stroke-width="0.505638" stroke-linecap="round" stroke-linejoin="round"></path><path d="M268.385 22.9511V26.6868" stroke="#3B1A5B" stroke-width="0.505638" stroke-linecap="round" stroke-linejoin="round"></path><path d="M270.139 24.819H266.404" stroke="#3B1A5B" stroke-width="0.505638" stroke-linecap="round" stroke-linejoin="round"></path><path d="M113 27C113 31.9706 108.971 36 104 36C99.0294 36 95 31.9706 95 27C95 22.0295 99.0294 18 104 18C108.971 18 113 22.0295 113 27Z" fill="#8AEED0"></path><path d="M264 452C264 456.971 259.971 461 255 461C250.029 461 246 456.971 246 452C246 447.029 250.029 443 255 443C259.971 443 264 447.029 264 452Z" fill="#8AEED0"></path><defs><linearGradient id="paint0_linear_454_176" x1="-504.045" y1="319.629" x2="489.821" y2="433.941" gradientUnits="userSpaceOnUse"><stop offset="0.17005" stop-color="#E084FF" stop-opacity="0"></stop><stop offset="0.566083" stop-color="#E084FF"></stop><stop offset="0.653452" stop-color="#E084FF" stop-opacity="0.914604"></stop><stop offset="0.967298" stop-color="#E084FF" stop-opacity="0"></stop></linearGradient><linearGradient id="paint1_linear_454_176" x1="312.73" y1="50.6322" x2="265.783" y2="51.1412" gradientUnits="userSpaceOnUse"><stop stop-color="#D5F379" stop-opacity="0"></stop><stop offset="0.732733" stop-color="#894D9D" stop-opacity="0.76"></stop><stop offset="1" stop-color="#894D9D"></stop></linearGradient></defs></svg> 