<?xml version="1.0" encoding="UTF-8"?> <svg xmlns="http://www.w3.org/2000/svg" width="203" height="61" viewBox="0 0 203 61" fill="none"><rect x="0.505859" width="202.494" height="60.3766" rx="9.2887" fill="#675DE5"></rect><path d="M49.7364 37.2588C49.1171 39.1945 48.144 41.2622 46.7286 43.3739C44.6055 46.6295 42.4823 48.2133 40.3592 48.2133C39.5188 48.2133 38.413 47.9493 36.9091 47.4214C35.4495 46.8935 34.211 46.6295 33.1936 46.6295C32.2205 46.6295 31.0263 46.8935 29.6993 47.4654C28.3281 47.9933 27.2223 48.3013 26.4261 48.3013C23.9049 48.3013 21.4279 46.1456 18.9952 41.9222C16.6067 37.6987 15.3682 33.6073 15.3682 29.5599C15.3682 25.8204 16.297 22.7848 18.1548 20.4092C20.0125 18.0335 22.3126 16.8457 25.1877 16.8457C26.3819 16.8457 27.7973 17.1096 29.5224 17.5935C31.2474 18.0775 32.3975 18.3414 32.9282 18.3414C33.6802 18.3414 34.8302 18.0775 36.4668 17.5056C38.1034 16.9336 39.5188 16.6697 40.7573 16.6697C42.7035 16.6697 44.4728 17.1976 46.0209 18.2535C46.8613 18.8254 47.7459 19.6613 48.5863 20.7171C47.3036 21.773 46.3305 22.7408 45.7555 23.6207C44.6939 25.1165 44.1631 26.8323 44.1631 28.68C44.1631 30.7037 44.7382 32.5515 45.844 34.1792C46.9498 35.807 48.2767 36.8189 49.7364 37.2588V37.2588ZM40.4919 8.44283C40.4919 9.45469 40.2265 10.5985 39.74 11.7864C39.2534 13.0182 38.5015 14.162 37.4399 15.1739C36.5553 16.0538 35.6706 16.6697 34.786 16.9336C34.211 17.1096 33.3706 17.2856 32.2205 17.3736C32.2648 14.9539 32.9282 12.8422 34.1667 11.0385C35.4052 9.23472 37.4399 8.09088 40.315 7.43097C40.3592 7.65094 40.4034 7.82691 40.4477 7.9589C40.4477 8.13487 40.4919 8.26685 40.4919 8.44283V8.44283Z" fill="white"></path><path d="M65.3855 25.0753C65.1948 25.0753 65.0474 25.0276 64.9434 24.9323C64.848 24.8282 64.8003 24.6809 64.8003 24.4901V16.4926C64.8003 16.3018 64.848 16.1588 64.9434 16.0634C65.0474 15.9594 65.1948 15.9074 65.3855 15.9074H67.8953C69.3778 15.9074 70.5222 16.2975 71.3284 17.0777C72.1347 17.858 72.5378 18.9937 72.5378 20.4848C72.5378 21.2304 72.4338 21.8893 72.2257 22.4615C72.0263 23.025 71.7272 23.5018 71.3284 23.8919C70.9296 24.2821 70.4441 24.5768 69.8719 24.7762C69.2998 24.9756 68.6409 25.0753 67.8953 25.0753H65.3855ZM65.8667 24.165H67.8173C68.4241 24.165 68.9486 24.087 69.3908 23.9309C69.8416 23.7749 70.2144 23.5452 70.5091 23.2417C70.8126 22.9383 71.038 22.5568 71.1854 22.0974C71.3327 21.6292 71.4064 21.0917 71.4064 20.4848C71.4064 19.2624 71.1073 18.3478 70.5091 17.741C69.911 17.1254 69.0137 16.8177 67.8173 16.8177H65.8667V24.165ZM75.037 25.0753C74.8463 25.0753 74.6989 25.0276 74.5949 24.9323C74.4995 24.8282 74.4519 24.6809 74.4519 24.4901V16.4926C74.4519 16.3018 74.4995 16.1588 74.5949 16.0634C74.6989 15.9594 74.8463 15.9074 75.037 15.9074H79.8746C80.022 15.9074 80.1347 15.9464 80.2127 16.0244C80.2907 16.1024 80.3297 16.2108 80.3297 16.3495C80.3297 16.4969 80.2907 16.6096 80.2127 16.6876C80.1347 16.7656 80.022 16.8047 79.8746 16.8047H75.4922V19.9777H79.6015C79.7489 19.9777 79.8616 20.0167 79.9396 20.0947C80.0176 20.1641 80.0567 20.2724 80.0567 20.4198C80.0567 20.5672 80.0176 20.6799 79.9396 20.7579C79.8616 20.836 79.7489 20.875 79.6015 20.875H75.4922V24.178H79.8746C80.022 24.178 80.1347 24.217 80.2127 24.2951C80.2907 24.3731 80.3297 24.4815 80.3297 24.6202C80.3297 24.7676 80.2907 24.8803 80.2127 24.9583C80.1347 25.0363 80.022 25.0753 79.8746 25.0753H75.037ZM84.8714 25.1924C84.4639 25.1924 84.0651 25.1577 83.675 25.0883C83.2848 25.019 82.9207 24.9193 82.5826 24.7892C82.2532 24.6592 81.9541 24.4945 81.6853 24.2951C81.5813 24.217 81.5076 24.1303 81.4643 24.035C81.4296 23.9309 81.4209 23.8313 81.4382 23.7359C81.4643 23.6319 81.5076 23.5452 81.5683 23.4758C81.6376 23.4064 81.72 23.3674 81.8154 23.3588C81.9107 23.3501 82.0148 23.3804 82.1275 23.4498C82.5176 23.7272 82.9337 23.9309 83.3759 24.061C83.818 24.1824 84.3165 24.243 84.8714 24.243C85.6516 24.243 86.2281 24.1 86.6009 23.8139C86.9824 23.5191 87.1731 23.1334 87.1731 22.6565C87.1731 22.2664 87.0344 21.963 86.757 21.7462C86.4882 21.5208 86.0331 21.3431 85.3915 21.2131L84.0391 20.94C83.2242 20.7666 82.613 20.4848 82.2055 20.0947C81.8067 19.6959 81.6073 19.1671 81.6073 18.5082C81.6073 18.1007 81.6897 17.7323 81.8544 17.4028C82.0191 17.0647 82.2488 16.7786 82.5436 16.5446C82.8384 16.3018 83.1895 16.1154 83.5969 15.9854C84.0044 15.8554 84.4552 15.7903 84.9494 15.7903C85.4956 15.7903 86.0027 15.8684 86.4709 16.0244C86.9477 16.1718 87.3768 16.3972 87.7583 16.7006C87.8536 16.7786 87.9187 16.8697 87.9533 16.9737C87.988 17.0691 87.9924 17.1644 87.9663 17.2598C87.9403 17.3465 87.8927 17.4202 87.8233 17.4809C87.7626 17.5416 87.6803 17.5762 87.5762 17.5849C87.4809 17.5936 87.3725 17.5589 87.2511 17.4809C86.9043 17.2208 86.5446 17.0344 86.1718 16.9217C85.799 16.8003 85.3872 16.7396 84.9364 16.7396C84.4769 16.7396 84.0781 16.809 83.74 16.9477C83.4106 17.0864 83.1505 17.2901 82.9597 17.5589C82.7777 17.819 82.6867 18.1224 82.6867 18.4692C82.6867 18.8853 82.8124 19.2148 83.0638 19.4575C83.3239 19.7003 83.7443 19.878 84.3252 19.9907L85.6776 20.2768C86.5532 20.4588 87.1991 20.7363 87.6152 21.109C88.04 21.4732 88.2524 21.9717 88.2524 22.6045C88.2524 22.986 88.1744 23.3371 88.0184 23.6579C87.8623 23.9786 87.6369 24.2561 87.3421 24.4901C87.0474 24.7155 86.6919 24.8889 86.2758 25.0103C85.8597 25.1317 85.3915 25.1924 84.8714 25.1924ZM93.8733 25.1924C92.9717 25.1924 92.2001 25.0016 91.5586 24.6202C90.917 24.2387 90.4229 23.6969 90.0761 22.9946C89.738 22.2924 89.5689 21.4558 89.5689 20.4848C89.5689 19.7566 89.6643 19.1064 89.855 18.5342C90.0544 17.9534 90.3362 17.4635 90.7003 17.0647C91.0731 16.6573 91.5282 16.3452 92.0657 16.1284C92.6032 15.903 93.2057 15.7903 93.8733 15.7903C94.4108 15.7903 94.9223 15.8684 95.4078 16.0244C95.8933 16.1718 96.3137 16.3929 96.6692 16.6876C96.7819 16.7743 96.8556 16.874 96.8903 16.9867C96.9336 17.0907 96.9379 17.1948 96.9033 17.2988C96.8773 17.3942 96.8252 17.4765 96.7472 17.5459C96.6779 17.6066 96.5912 17.6369 96.4871 17.6369C96.3831 17.6369 96.2661 17.5936 96.136 17.5069C95.8239 17.2555 95.4815 17.0691 95.1087 16.9477C94.7359 16.8263 94.3328 16.7656 93.8993 16.7656C93.2144 16.7656 92.6336 16.913 92.1567 17.2078C91.6799 17.4939 91.3201 17.9143 91.0774 18.4692C90.8347 19.024 90.7133 19.6959 90.7133 20.4848C90.7133 21.2738 90.8347 21.95 91.0774 22.5135C91.3201 23.0683 91.6799 23.4931 92.1567 23.7879C92.6336 24.074 93.2144 24.217 93.8993 24.217C94.3241 24.217 94.7272 24.1564 95.1087 24.035C95.4901 23.9049 95.8413 23.7142 96.162 23.4628C96.2921 23.3761 96.4091 23.3371 96.5131 23.3458C96.6172 23.3458 96.7039 23.3761 96.7732 23.4368C96.8426 23.4975 96.8903 23.5755 96.9163 23.6709C96.951 23.7662 96.951 23.8659 96.9163 23.97C96.8903 24.074 96.8252 24.165 96.7212 24.243C96.3571 24.5552 95.928 24.7936 95.4338 24.9583C94.9483 25.1143 94.4281 25.1924 93.8733 25.1924ZM98.2333 25.1663C98.0945 25.1663 97.9818 25.136 97.8951 25.0753C97.8171 25.006 97.7694 24.9193 97.7521 24.8152C97.7434 24.7025 97.7694 24.5768 97.8301 24.4381L101.406 16.2975C101.484 16.1241 101.575 16.0027 101.679 15.9334C101.792 15.8554 101.913 15.8163 102.043 15.8163C102.174 15.8163 102.291 15.8554 102.395 15.9334C102.507 16.0027 102.598 16.1241 102.668 16.2975L106.257 24.4381C106.326 24.5768 106.352 24.7025 106.335 24.8152C106.326 24.9279 106.283 25.0146 106.205 25.0753C106.127 25.136 106.018 25.1663 105.88 25.1663C105.724 25.1663 105.598 25.1273 105.503 25.0493C105.407 24.9626 105.329 24.8412 105.269 24.6852L104.306 22.4615L104.826 22.7346H99.2346L99.7677 22.4615L98.8184 24.6852C98.7404 24.8499 98.6581 24.9713 98.5714 25.0493C98.4847 25.1273 98.372 25.1663 98.2333 25.1663ZM102.03 17.1558L99.9368 22.0844L99.6247 21.8373H104.436L104.15 22.0844L102.056 17.1558H102.03ZM108.435 25.1663C108.262 25.1663 108.127 25.1187 108.032 25.0233C107.945 24.9193 107.902 24.7806 107.902 24.6072V16.4535C107.902 16.2715 107.95 16.1371 108.045 16.0504C108.14 15.955 108.275 15.9074 108.448 15.9074H111.53C112.51 15.9074 113.264 16.1371 113.793 16.5966C114.322 17.0561 114.586 17.7106 114.586 18.5602C114.586 19.0977 114.465 19.5659 114.222 19.9647C113.988 20.3548 113.641 20.6539 113.182 20.862C112.722 21.0614 112.172 21.1611 111.53 21.1611L111.66 20.992H111.92C112.258 20.992 112.553 21.0787 112.805 21.2521C113.056 21.4255 113.286 21.7029 113.494 22.0844L114.742 24.4121C114.812 24.5335 114.842 24.6548 114.833 24.7762C114.833 24.8889 114.794 24.9843 114.716 25.0623C114.638 25.1317 114.526 25.1663 114.378 25.1663C114.231 25.1663 114.109 25.1317 114.014 25.0623C113.919 24.993 113.836 24.8933 113.767 24.7632L112.349 22.1364C112.15 21.7636 111.92 21.5165 111.66 21.3951C111.4 21.2651 111.058 21.2001 110.633 21.2001H108.968V24.6072C108.968 24.7806 108.925 24.9193 108.838 25.0233C108.752 25.1187 108.617 25.1663 108.435 25.1663ZM108.968 20.3548H111.374C112.085 20.3548 112.623 20.2074 112.987 19.9127C113.351 19.6092 113.533 19.1584 113.533 18.5602C113.533 17.9794 113.351 17.5416 112.987 17.2468C112.623 16.9434 112.085 16.7917 111.374 16.7917H108.968V20.3548ZM120.725 25.1924C119.745 25.1924 118.917 25.006 118.241 24.6332C117.574 24.2604 117.066 23.7229 116.72 23.0207C116.373 22.3184 116.2 21.4775 116.2 20.4978C116.2 19.7696 116.295 19.1151 116.486 18.5342C116.685 17.9534 116.971 17.4635 117.344 17.0647C117.725 16.6573 118.185 16.3452 118.722 16.1284C119.269 15.903 119.884 15.7903 120.569 15.7903C121.115 15.7903 121.644 15.8684 122.155 16.0244C122.667 16.1718 123.122 16.4102 123.521 16.7396C123.625 16.8177 123.69 16.9044 123.716 16.9997C123.742 17.0951 123.738 17.1904 123.703 17.2858C123.677 17.3812 123.629 17.4635 123.56 17.5329C123.499 17.5936 123.417 17.6283 123.313 17.6369C123.217 17.6456 123.118 17.6153 123.014 17.5459C122.658 17.2685 122.281 17.0691 121.882 16.9477C121.484 16.8177 121.041 16.7526 120.556 16.7526C119.862 16.7526 119.273 16.9 118.787 17.1948C118.311 17.4895 117.946 17.9143 117.695 18.4692C117.452 19.024 117.331 19.7003 117.331 20.4978C117.331 21.7116 117.613 22.6392 118.176 23.2807C118.748 23.9223 119.607 24.243 120.751 24.243C121.167 24.243 121.575 24.204 121.973 24.126C122.372 24.0393 122.749 23.9223 123.105 23.7749L122.871 24.3861V21.1481H121.011C120.855 21.1481 120.738 21.109 120.66 21.031C120.582 20.953 120.543 20.849 120.543 20.7189C120.543 20.5802 120.582 20.4762 120.66 20.4068C120.738 20.3375 120.855 20.3028 121.011 20.3028H123.339C123.486 20.3028 123.599 20.3418 123.677 20.4198C123.755 20.4978 123.794 20.6105 123.794 20.7579V24.152C123.794 24.2821 123.772 24.3904 123.729 24.4771C123.686 24.5638 123.612 24.6288 123.508 24.6722C123.144 24.8196 122.706 24.9453 122.194 25.0493C121.692 25.1447 121.202 25.1924 120.725 25.1924ZM125.778 25.1663C125.64 25.1663 125.527 25.136 125.44 25.0753C125.362 25.006 125.314 24.9193 125.297 24.8152C125.288 24.7025 125.314 24.5768 125.375 24.4381L128.951 16.2975C129.029 16.1241 129.12 16.0027 129.224 15.9334C129.337 15.8554 129.458 15.8163 129.588 15.8163C129.719 15.8163 129.836 15.8554 129.94 15.9334C130.052 16.0027 130.143 16.1241 130.213 16.2975L133.802 24.4381C133.871 24.5768 133.897 24.7025 133.88 24.8152C133.871 24.9279 133.828 25.0146 133.75 25.0753C133.672 25.136 133.563 25.1663 133.425 25.1663C133.269 25.1663 133.143 25.1273 133.048 25.0493C132.952 24.9626 132.874 24.8412 132.814 24.6852L131.851 22.4615L132.371 22.7346H126.78L127.313 22.4615L126.363 24.6852C126.285 24.8499 126.203 24.9713 126.116 25.0493C126.03 25.1273 125.917 25.1663 125.778 25.1663ZM129.575 17.1558L127.482 22.0844L127.17 21.8373H131.981L131.695 22.0844L129.601 17.1558H129.575ZM135.98 25.1663C135.807 25.1663 135.672 25.1187 135.577 25.0233C135.49 24.9193 135.447 24.7806 135.447 24.6072V16.4535C135.447 16.2715 135.495 16.1371 135.59 16.0504C135.685 15.955 135.82 15.9074 135.993 15.9074H139.075C140.055 15.9074 140.809 16.1371 141.338 16.5966C141.867 17.0561 142.131 17.7106 142.131 18.5602C142.131 19.0977 142.01 19.5659 141.767 19.9647C141.533 20.3548 141.186 20.6539 140.727 20.862C140.267 21.0614 139.717 21.1611 139.075 21.1611L139.205 20.992H139.465C139.803 20.992 140.098 21.0787 140.35 21.2521C140.601 21.4255 140.831 21.7029 141.039 22.0844L142.287 24.4121C142.357 24.5335 142.387 24.6548 142.378 24.7762C142.378 24.8889 142.339 24.9843 142.261 25.0623C142.183 25.1317 142.071 25.1663 141.923 25.1663C141.776 25.1663 141.654 25.1317 141.559 25.0623C141.464 24.993 141.381 24.8933 141.312 24.7632L139.894 22.1364C139.695 21.7636 139.465 21.5165 139.205 21.3951C138.945 21.2651 138.603 21.2001 138.178 21.2001H136.513V24.6072C136.513 24.7806 136.47 24.9193 136.383 25.0233C136.297 25.1187 136.162 25.1663 135.98 25.1663ZM136.513 20.3548H138.919C139.63 20.3548 140.168 20.2074 140.532 19.9127C140.896 19.6092 141.078 19.1584 141.078 18.5602C141.078 17.9794 140.896 17.5416 140.532 17.2468C140.168 16.9434 139.63 16.7917 138.919 16.7917H136.513V20.3548ZM148.084 25.0753C147.893 25.0753 147.746 25.0276 147.642 24.9323C147.546 24.8282 147.499 24.6809 147.499 24.4901V16.4926C147.499 16.3018 147.546 16.1588 147.642 16.0634C147.746 15.9594 147.893 15.9074 148.084 15.9074H150.594C152.076 15.9074 153.221 16.2975 154.027 17.0777C154.833 17.858 155.236 18.9937 155.236 20.4848C155.236 21.2304 155.132 21.8893 154.924 22.4615C154.725 23.025 154.426 23.5018 154.027 23.8919C153.628 24.2821 153.143 24.5768 152.57 24.7762C151.998 24.9756 151.339 25.0753 150.594 25.0753H148.084ZM148.565 24.165H150.516C151.123 24.165 151.647 24.087 152.089 23.9309C152.54 23.7749 152.913 23.5452 153.208 23.2417C153.511 22.9383 153.736 22.5568 153.884 22.0974C154.031 21.6292 154.105 21.0917 154.105 20.4848C154.105 19.2624 153.806 18.3478 153.208 17.741C152.609 17.1254 151.712 16.8177 150.516 16.8177H148.565V24.165ZM157.736 25.0753C157.545 25.0753 157.397 25.0276 157.293 24.9323C157.198 24.8282 157.15 24.6809 157.15 24.4901V16.4926C157.15 16.3018 157.198 16.1588 157.293 16.0634C157.397 15.9594 157.545 15.9074 157.736 15.9074H162.573C162.72 15.9074 162.833 15.9464 162.911 16.0244C162.989 16.1024 163.028 16.2108 163.028 16.3495C163.028 16.4969 162.989 16.6096 162.911 16.6876C162.833 16.7656 162.72 16.8047 162.573 16.8047H158.191V19.9777H162.3C162.447 19.9777 162.56 20.0167 162.638 20.0947C162.716 20.1641 162.755 20.2724 162.755 20.4198C162.755 20.5672 162.716 20.6799 162.638 20.7579C162.56 20.836 162.447 20.875 162.3 20.875H158.191V24.178H162.573C162.72 24.178 162.833 24.217 162.911 24.2951C162.989 24.3731 163.028 24.4815 163.028 24.6202C163.028 24.7676 162.989 24.8803 162.911 24.9583C162.833 25.0363 162.72 25.0753 162.573 25.0753H157.736Z" fill="white"></path><path d="M63.8361 45.8661L68.592 32.8619H71.9359L76.6731 45.8661H73.1434L72.2517 43.3767H67.9046L67.0129 45.8661H63.8361ZM68.852 40.813H71.3043L70.0782 36.9489L68.852 40.813ZM78.5301 45.8661V32.8619H83.8247C85.0384 32.8619 86.0354 33.0415 86.8157 33.4006C87.5959 33.7474 88.1718 34.2552 88.5434 34.924C88.9273 35.5804 89.1193 36.373 89.1193 37.3019C89.1193 38.2184 88.9273 39.011 88.5434 39.6798C88.1718 40.3486 87.5959 40.8626 86.8157 41.2217C86.0354 41.5685 85.0384 41.7419 83.8247 41.7419H81.8741V45.8661H78.5301ZM81.8741 38.9924H83.4532C84.3077 38.9924 84.9084 38.85 85.2552 38.5652C85.6019 38.2803 85.7753 37.8592 85.7753 37.3019C85.7753 36.7446 85.6019 36.3235 85.2552 36.0386C84.9084 35.7538 84.3077 35.6114 83.4532 35.6114H81.8741V38.9924ZM91.3471 45.8661V32.8619H96.6417C97.8554 32.8619 98.8524 33.0415 99.6326 33.4006C100.413 33.7474 100.989 34.2552 101.36 34.924C101.744 35.5804 101.936 36.373 101.936 37.3019C101.936 38.2184 101.744 39.011 101.36 39.6798C100.989 40.3486 100.413 40.8626 99.6326 41.2217C98.8524 41.5685 97.8554 41.7419 96.6417 41.7419H94.691V45.8661H91.3471ZM94.691 38.9924H96.2701C97.1247 38.9924 97.7253 38.85 98.0721 38.5652C98.4189 38.2803 98.5923 37.8592 98.5923 37.3019C98.5923 36.7446 98.4189 36.3235 98.0721 36.0386C97.7253 35.7538 97.1247 35.6114 96.2701 35.6114H94.691V38.9924ZM114.103 46.1076C112.889 46.1076 111.88 45.9466 111.075 45.6246C110.27 45.3026 109.663 44.8505 109.254 44.2684C108.858 43.674 108.647 42.968 108.623 42.1506H111.967C112.066 42.6212 112.282 42.968 112.617 43.1909C112.951 43.4015 113.447 43.5068 114.103 43.5068C114.809 43.5068 115.335 43.4077 115.682 43.2095C116.041 43.0114 116.221 42.7079 116.221 42.2992C116.221 41.9648 116.103 41.6986 115.868 41.5004C115.645 41.3022 115.298 41.135 114.827 40.9988C114.357 40.8626 113.793 40.7201 113.137 40.5715C112.282 40.3734 111.545 40.1195 110.926 39.8099C110.307 39.4878 109.83 39.0606 109.496 38.528C109.161 37.9955 108.994 37.3081 108.994 36.4659C108.994 35.6485 109.199 34.955 109.607 34.3853C110.028 33.8155 110.623 33.3821 111.391 33.0848C112.159 32.7752 113.063 32.6204 114.103 32.6204C115.242 32.6204 116.184 32.769 116.927 33.0663C117.682 33.3635 118.252 33.7908 118.636 34.3481C119.032 34.9054 119.255 35.5866 119.305 36.3916H115.961C115.886 35.9953 115.707 35.7042 115.422 35.5185C115.137 35.3203 114.697 35.2212 114.103 35.2212C113.447 35.2212 112.988 35.3265 112.728 35.5371C112.468 35.7476 112.338 36.0201 112.338 36.3545C112.338 36.8127 112.573 37.1471 113.044 37.3576C113.527 37.5682 114.221 37.7601 115.125 37.9335C115.794 38.0698 116.4 38.237 116.945 38.4351C117.503 38.6333 117.973 38.8872 118.357 39.1968C118.754 39.5064 119.057 39.8904 119.267 40.3486C119.478 40.7945 119.583 41.3456 119.583 42.002C119.583 42.8565 119.367 43.5935 118.933 44.2127C118.5 44.8196 117.874 45.2902 117.057 45.6246C116.239 45.9466 115.255 46.1076 114.103 46.1076ZM124.699 45.8661V35.6114H120.705V32.8619H132.037V35.6114H128.043V45.8661H124.699ZM139.777 46.1076C138.922 46.1076 138.111 45.9837 137.343 45.736C136.588 45.4883 135.919 45.0982 135.337 44.5657C134.755 44.0331 134.296 43.3458 133.962 42.5036C133.628 41.649 133.46 40.6335 133.46 39.4569V39.0853C133.46 37.9459 133.628 36.9675 133.962 36.1501C134.296 35.3327 134.755 34.6639 135.337 34.1437C135.919 33.6236 136.588 33.2396 137.343 32.9919C138.111 32.7442 138.922 32.6204 139.777 32.6204C140.644 32.6204 141.455 32.7442 142.21 32.9919C142.966 33.2396 143.635 33.6236 144.217 34.1437C144.799 34.6639 145.257 35.3327 145.592 36.1501C145.926 36.9675 146.093 37.9459 146.093 39.0853V39.4569C146.093 40.6335 145.926 41.649 145.592 42.5036C145.257 43.3458 144.799 44.0331 144.217 44.5657C143.635 45.0982 142.966 45.4883 142.21 45.736C141.455 45.9837 140.644 46.1076 139.777 46.1076ZM139.758 43.321C140.266 43.321 140.737 43.2095 141.17 42.9866C141.604 42.7513 141.95 42.3612 142.21 41.8162C142.483 41.2589 142.619 40.4724 142.619 39.4569V39.0853C142.619 38.1193 142.483 37.37 142.21 36.8375C141.95 36.3049 141.604 35.9334 141.17 35.7228C140.737 35.5123 140.266 35.407 139.758 35.407C139.275 35.407 138.817 35.5123 138.383 35.7228C137.95 35.9334 137.597 36.3049 137.325 36.8375C137.052 37.37 136.916 38.1193 136.916 39.0853V39.4569C136.916 40.4724 137.052 41.2589 137.325 41.8162C137.597 42.3612 137.95 42.7513 138.383 42.9866C138.817 43.2095 139.275 43.321 139.758 43.321ZM148.592 45.8661V32.8619H154.258C155.348 32.8619 156.252 33.0415 156.971 33.4006C157.701 33.7598 158.253 34.2614 158.624 34.9054C158.996 35.5494 159.181 36.3173 159.181 37.209C159.181 38.1379 158.959 38.9367 158.513 39.6055C158.079 40.2619 157.423 40.7449 156.543 41.0545L159.553 45.8661H155.838L153.311 41.4075H151.936V45.8661H148.592ZM151.936 38.8067H153.515C154.407 38.8067 155.014 38.6766 155.336 38.4165C155.67 38.1441 155.838 37.7416 155.838 37.209C155.838 36.6765 155.67 36.2801 155.336 36.0201C155.014 35.7476 154.407 35.6114 153.515 35.6114H151.936V38.8067ZM161.881 45.8661V32.8619H171.355V35.4256H165.225V37.9707H170.798V40.3858H165.225V43.3024H171.355V45.8661H161.881Z" fill="white"></path></svg> 