<?xml version="1.0" encoding="UTF-8"?> <svg xmlns="http://www.w3.org/2000/svg" width="203" height="61" viewBox="0 0 203 61" fill="none"><rect width="202.494" height="60.3766" rx="9.2887" fill="#675DE5"></rect><path d="M64.8796 25.0753C64.6889 25.0753 64.5415 25.0276 64.4375 24.9323C64.3421 24.8282 64.2944 24.6809 64.2944 24.4901V16.4926C64.2944 16.3018 64.3421 16.1588 64.4375 16.0634C64.5415 15.9594 64.6889 15.9074 64.8796 15.9074H67.3894C68.8719 15.9074 70.0163 16.2975 70.8226 17.0777C71.6288 17.858 72.0319 18.9937 72.0319 20.4848C72.0319 21.2304 71.9279 21.8893 71.7198 22.4615C71.5204 23.025 71.2213 23.5018 70.8226 23.8919C70.4238 24.2821 69.9383 24.5768 69.3661 24.7762C68.7939 24.9756 68.135 25.0753 67.3894 25.0753H64.8796ZM65.3608 24.165H67.3114C67.9183 24.165 68.4428 24.087 68.8849 23.9309C69.3357 23.7749 69.7085 23.5452 70.0033 23.2417C70.3067 22.9383 70.5321 22.5568 70.6795 22.0974C70.8269 21.6292 70.9006 21.0917 70.9006 20.4848C70.9006 19.2624 70.6015 18.3478 70.0033 17.741C69.4051 17.1254 68.5078 16.8177 67.3114 16.8177H65.3608V24.165ZM74.5312 25.0753C74.3405 25.0753 74.1931 25.0276 74.089 24.9323C73.9937 24.8282 73.946 24.6809 73.946 24.4901V16.4926C73.946 16.3018 73.9937 16.1588 74.089 16.0634C74.1931 15.9594 74.3405 15.9074 74.5312 15.9074H79.3687C79.5161 15.9074 79.6288 15.9464 79.7068 16.0244C79.7849 16.1024 79.8239 16.2108 79.8239 16.3495C79.8239 16.4969 79.7849 16.6096 79.7068 16.6876C79.6288 16.7656 79.5161 16.8047 79.3687 16.8047H74.9863V19.9777H79.0956C79.243 19.9777 79.3557 20.0167 79.4338 20.0947C79.5118 20.1641 79.5508 20.2724 79.5508 20.4198C79.5508 20.5672 79.5118 20.6799 79.4338 20.7579C79.3557 20.836 79.243 20.875 79.0956 20.875H74.9863V24.178H79.3687C79.5161 24.178 79.6288 24.217 79.7068 24.2951C79.7849 24.3731 79.8239 24.4815 79.8239 24.6202C79.8239 24.7676 79.7849 24.8803 79.7068 24.9583C79.6288 25.0363 79.5161 25.0753 79.3687 25.0753H74.5312ZM84.3655 25.1924C83.958 25.1924 83.5592 25.1577 83.1691 25.0883C82.779 25.019 82.4149 24.9193 82.0768 24.7892C81.7473 24.6592 81.4482 24.4945 81.1795 24.2951C81.0754 24.217 81.0017 24.1303 80.9584 24.035C80.9237 23.9309 80.9151 23.8313 80.9324 23.7359C80.9584 23.6319 81.0017 23.5452 81.0624 23.4758C81.1318 23.4064 81.2141 23.3674 81.3095 23.3588C81.4049 23.3501 81.5089 23.3804 81.6216 23.4498C82.0117 23.7272 82.4279 23.9309 82.87 24.061C83.3122 24.1824 83.8106 24.243 84.3655 24.243C85.1457 24.243 85.7223 24.1 86.0951 23.8139C86.4765 23.5191 86.6672 23.1334 86.6672 22.6565C86.6672 22.2664 86.5285 21.963 86.2511 21.7462C85.9823 21.5208 85.5272 21.3431 84.8857 21.2131L83.5332 20.94C82.7183 20.7666 82.1071 20.4848 81.6996 20.0947C81.3008 19.6959 81.1014 19.1671 81.1014 18.5082C81.1014 18.1007 81.1838 17.7323 81.3485 17.4028C81.5132 17.0647 81.743 16.7786 82.0377 16.5446C82.3325 16.3018 82.6836 16.1154 83.0911 15.9854C83.4985 15.8554 83.9494 15.7903 84.4435 15.7903C84.9897 15.7903 85.4969 15.8684 85.965 16.0244C86.4418 16.1718 86.871 16.3972 87.2524 16.7006C87.3478 16.7786 87.4128 16.8697 87.4475 16.9737C87.4822 17.0691 87.4865 17.1644 87.4605 17.2598C87.4345 17.3465 87.3868 17.4202 87.3174 17.4809C87.2568 17.5416 87.1744 17.5762 87.0704 17.5849C86.975 17.5936 86.8666 17.5589 86.7453 17.4809C86.3985 17.2208 86.0387 17.0344 85.6659 16.9217C85.2931 16.8003 84.8813 16.7396 84.4305 16.7396C83.971 16.7396 83.5722 16.809 83.2341 16.9477C82.9047 17.0864 82.6446 17.2901 82.4539 17.5589C82.2718 17.819 82.1808 18.1224 82.1808 18.4692C82.1808 18.8853 82.3065 19.2148 82.5579 19.4575C82.818 19.7003 83.2385 19.878 83.8193 19.9907L85.1718 20.2768C86.0474 20.4588 86.6932 20.7363 87.1094 21.109C87.5342 21.4732 87.7466 21.9717 87.7466 22.6045C87.7466 22.986 87.6686 23.3371 87.5125 23.6579C87.3565 23.9786 87.1311 24.2561 86.8363 24.4901C86.5415 24.7155 86.1861 24.8889 85.7699 25.0103C85.3538 25.1317 84.8857 25.1924 84.3655 25.1924ZM93.3674 25.1924C92.4658 25.1924 91.6942 25.0016 91.0527 24.6202C90.4112 24.2387 89.917 23.6969 89.5702 22.9946C89.2321 22.2924 89.0631 21.4558 89.0631 20.4848C89.0631 19.7566 89.1584 19.1064 89.3491 18.5342C89.5485 17.9534 89.8303 17.4635 90.1944 17.0647C90.5672 16.6573 91.0223 16.3452 91.5599 16.1284C92.0974 15.903 92.6999 15.7903 93.3674 15.7903C93.9049 15.7903 94.4164 15.8684 94.9019 16.0244C95.3874 16.1718 95.8079 16.3929 96.1633 16.6876C96.276 16.7743 96.3497 16.874 96.3844 16.9867C96.4278 17.0907 96.4321 17.1948 96.3974 17.2988C96.3714 17.3942 96.3194 17.4765 96.2414 17.5459C96.172 17.6066 96.0853 17.6369 95.9813 17.6369C95.8772 17.6369 95.7602 17.5936 95.6302 17.5069C95.3181 17.2555 94.9756 17.0691 94.6028 16.9477C94.23 16.8263 93.8269 16.7656 93.3934 16.7656C92.7086 16.7656 92.1277 16.913 91.6509 17.2078C91.1741 17.4939 90.8143 17.9143 90.5715 18.4692C90.3288 19.024 90.2074 19.6959 90.2074 20.4848C90.2074 21.2738 90.3288 21.95 90.5715 22.5135C90.8143 23.0683 91.1741 23.4931 91.6509 23.7879C92.1277 24.074 92.7086 24.217 93.3934 24.217C93.8182 24.217 94.2214 24.1564 94.6028 24.035C94.9843 23.9049 95.3354 23.7142 95.6562 23.4628C95.7862 23.3761 95.9033 23.3371 96.0073 23.3458C96.1113 23.3458 96.198 23.3761 96.2674 23.4368C96.3367 23.4975 96.3844 23.5755 96.4104 23.6709C96.4451 23.7662 96.4451 23.8659 96.4104 23.97C96.3844 24.074 96.3194 24.165 96.2154 24.243C95.8512 24.5552 95.4221 24.7936 94.9279 24.9583C94.4424 25.1143 93.9223 25.1924 93.3674 25.1924ZM97.7274 25.1663C97.5887 25.1663 97.476 25.136 97.3893 25.0753C97.3113 25.006 97.2636 24.9193 97.2462 24.8152C97.2376 24.7025 97.2636 24.5768 97.3243 24.4381L100.9 16.2975C100.978 16.1241 101.069 16.0027 101.174 15.9334C101.286 15.8554 101.408 15.8163 101.538 15.8163C101.668 15.8163 101.785 15.8554 101.889 15.9334C102.001 16.0027 102.092 16.1241 102.162 16.2975L105.751 24.4381C105.82 24.5768 105.846 24.7025 105.829 24.8152C105.82 24.9279 105.777 25.0146 105.699 25.0753C105.621 25.136 105.513 25.1663 105.374 25.1663C105.218 25.1663 105.092 25.1273 104.997 25.0493C104.901 24.9626 104.823 24.8412 104.763 24.6852L103.8 22.4615L104.321 22.7346H98.7287L99.2619 22.4615L98.3126 24.6852C98.2346 24.8499 98.1522 24.9713 98.0655 25.0493C97.9788 25.1273 97.8661 25.1663 97.7274 25.1663ZM101.525 17.1558L99.4309 22.0844L99.1188 21.8373H103.93L103.644 22.0844L101.551 17.1558H101.525ZM107.929 25.1663C107.756 25.1663 107.622 25.1187 107.526 25.0233C107.44 24.9193 107.396 24.7806 107.396 24.6072V16.4535C107.396 16.2715 107.444 16.1371 107.539 16.0504C107.635 15.955 107.769 15.9074 107.942 15.9074H111.024C112.004 15.9074 112.758 16.1371 113.287 16.5966C113.816 17.0561 114.08 17.7106 114.08 18.5602C114.08 19.0977 113.959 19.5659 113.716 19.9647C113.482 20.3548 113.135 20.6539 112.676 20.862C112.216 21.0614 111.666 21.1611 111.024 21.1611L111.154 20.992H111.415C111.753 20.992 112.047 21.0787 112.299 21.2521C112.55 21.4255 112.78 21.7029 112.988 22.0844L114.236 24.4121C114.306 24.5335 114.336 24.6548 114.327 24.7762C114.327 24.8889 114.288 24.9843 114.21 25.0623C114.132 25.1317 114.02 25.1663 113.872 25.1663C113.725 25.1663 113.604 25.1317 113.508 25.0623C113.413 24.993 113.33 24.8933 113.261 24.7632L111.844 22.1364C111.644 21.7636 111.414 21.5165 111.154 21.3951C110.894 21.2651 110.552 21.2001 110.127 21.2001H108.463V24.6072C108.463 24.7806 108.419 24.9193 108.333 25.0233C108.246 25.1187 108.111 25.1663 107.929 25.1663ZM108.463 20.3548H110.868C111.579 20.3548 112.117 20.2074 112.481 19.9127C112.845 19.6092 113.027 19.1584 113.027 18.5602C113.027 17.9794 112.845 17.5416 112.481 17.2468C112.117 16.9434 111.579 16.7917 110.868 16.7917H108.463V20.3548ZM120.219 25.1924C119.239 25.1924 118.412 25.006 117.735 24.6332C117.068 24.2604 116.561 23.7229 116.214 23.0207C115.867 22.3184 115.694 21.4775 115.694 20.4978C115.694 19.7696 115.789 19.1151 115.98 18.5342C116.179 17.9534 116.465 17.4635 116.838 17.0647C117.22 16.6573 117.679 16.3452 118.217 16.1284C118.763 15.903 119.378 15.7903 120.063 15.7903C120.609 15.7903 121.138 15.8684 121.65 16.0244C122.161 16.1718 122.616 16.4102 123.015 16.7396C123.119 16.8177 123.184 16.9044 123.21 16.9997C123.236 17.0951 123.232 17.1904 123.197 17.2858C123.171 17.3812 123.123 17.4635 123.054 17.5329C122.993 17.5936 122.911 17.6283 122.807 17.6369C122.712 17.6456 122.612 17.6153 122.508 17.5459C122.152 17.2685 121.775 17.0691 121.377 16.9477C120.978 16.8177 120.536 16.7526 120.05 16.7526C119.357 16.7526 118.767 16.9 118.282 17.1948C117.805 17.4895 117.441 17.9143 117.189 18.4692C116.946 19.024 116.825 19.7003 116.825 20.4978C116.825 21.7116 117.107 22.6392 117.67 23.2807C118.243 23.9223 119.101 24.243 120.245 24.243C120.661 24.243 121.069 24.204 121.468 24.126C121.866 24.0393 122.243 23.9223 122.599 23.7749L122.365 24.3861V21.1481H120.505C120.349 21.1481 120.232 21.109 120.154 21.031C120.076 20.953 120.037 20.849 120.037 20.7189C120.037 20.5802 120.076 20.4762 120.154 20.4068C120.232 20.3375 120.349 20.3028 120.505 20.3028H122.833C122.98 20.3028 123.093 20.3418 123.171 20.4198C123.249 20.4978 123.288 20.6105 123.288 20.7579V24.152C123.288 24.2821 123.266 24.3904 123.223 24.4771C123.18 24.5638 123.106 24.6288 123.002 24.6722C122.638 24.8196 122.2 24.9453 121.689 25.0493C121.186 25.1447 120.696 25.1924 120.219 25.1924ZM125.272 25.1663C125.134 25.1663 125.021 25.136 124.934 25.0753C124.856 25.006 124.809 24.9193 124.791 24.8152C124.783 24.7025 124.809 24.5768 124.869 24.4381L128.445 16.2975C128.523 16.1241 128.614 16.0027 128.718 15.9334C128.831 15.8554 128.953 15.8163 129.083 15.8163C129.213 15.8163 129.33 15.8554 129.434 15.9334C129.546 16.0027 129.637 16.1241 129.707 16.2975L133.296 24.4381C133.365 24.5768 133.391 24.7025 133.374 24.8152C133.365 24.9279 133.322 25.0146 133.244 25.0753C133.166 25.136 133.058 25.1663 132.919 25.1663C132.763 25.1663 132.637 25.1273 132.542 25.0493C132.446 24.9626 132.368 24.8412 132.308 24.6852L131.345 22.4615L131.866 22.7346H126.274L126.807 22.4615L125.858 24.6852C125.78 24.8499 125.697 24.9713 125.61 25.0493C125.524 25.1273 125.411 25.1663 125.272 25.1663ZM129.07 17.1558L126.976 22.0844L126.664 21.8373H131.475L131.189 22.0844L129.096 17.1558H129.07ZM135.474 25.1663C135.301 25.1663 135.167 25.1187 135.071 25.0233C134.985 24.9193 134.941 24.7806 134.941 24.6072V16.4535C134.941 16.2715 134.989 16.1371 135.084 16.0504C135.18 15.955 135.314 15.9074 135.487 15.9074H138.569C139.549 15.9074 140.303 16.1371 140.832 16.5966C141.361 17.0561 141.625 17.7106 141.625 18.5602C141.625 19.0977 141.504 19.5659 141.261 19.9647C141.027 20.3548 140.68 20.6539 140.221 20.862C139.761 21.0614 139.211 21.1611 138.569 21.1611L138.699 20.992H138.959C139.298 20.992 139.592 21.0787 139.844 21.2521C140.095 21.4255 140.325 21.7029 140.533 22.0844L141.781 24.4121C141.851 24.5335 141.881 24.6548 141.872 24.7762C141.872 24.8889 141.833 24.9843 141.755 25.0623C141.677 25.1317 141.565 25.1663 141.417 25.1663C141.27 25.1663 141.149 25.1317 141.053 25.0623C140.958 24.993 140.875 24.8933 140.806 24.7632L139.389 22.1364C139.189 21.7636 138.959 21.5165 138.699 21.3951C138.439 21.2651 138.097 21.2001 137.672 21.2001H136.008V24.6072C136.008 24.7806 135.964 24.9193 135.878 25.0233C135.791 25.1187 135.656 25.1663 135.474 25.1663ZM136.008 20.3548H138.413C139.124 20.3548 139.662 20.2074 140.026 19.9127C140.39 19.6092 140.572 19.1584 140.572 18.5602C140.572 17.9794 140.39 17.5416 140.026 17.2468C139.662 16.9434 139.124 16.7917 138.413 16.7917H136.008V20.3548ZM147.578 25.0753C147.387 25.0753 147.24 25.0276 147.136 24.9323C147.041 24.8282 146.993 24.6809 146.993 24.4901V16.4926C146.993 16.3018 147.041 16.1588 147.136 16.0634C147.24 15.9594 147.387 15.9074 147.578 15.9074H150.088C151.57 15.9074 152.715 16.2975 153.521 17.0777C154.327 17.858 154.73 18.9937 154.73 20.4848C154.73 21.2304 154.626 21.8893 154.418 22.4615C154.219 23.025 153.92 23.5018 153.521 23.8919C153.122 24.2821 152.637 24.5768 152.065 24.7762C151.492 24.9756 150.833 25.0753 150.088 25.0753H147.578ZM148.059 24.165H150.01C150.617 24.165 151.141 24.087 151.583 23.9309C152.034 23.7749 152.407 23.5452 152.702 23.2417C153.005 22.9383 153.231 22.5568 153.378 22.0974C153.525 21.6292 153.599 21.0917 153.599 20.4848C153.599 19.2624 153.3 18.3478 152.702 17.741C152.104 17.1254 151.206 16.8177 150.01 16.8177H148.059V24.165ZM157.23 25.0753C157.039 25.0753 156.892 25.0276 156.788 24.9323C156.692 24.8282 156.644 24.6809 156.644 24.4901V16.4926C156.644 16.3018 156.692 16.1588 156.788 16.0634C156.892 15.9594 157.039 15.9074 157.23 15.9074H162.067C162.215 15.9074 162.327 15.9464 162.405 16.0244C162.483 16.1024 162.522 16.2108 162.522 16.3495C162.522 16.4969 162.483 16.6096 162.405 16.6876C162.327 16.7656 162.215 16.8047 162.067 16.8047H157.685V19.9777H161.794C161.942 19.9777 162.054 20.0167 162.132 20.0947C162.21 20.1641 162.249 20.2724 162.249 20.4198C162.249 20.5672 162.21 20.6799 162.132 20.7579C162.054 20.836 161.942 20.875 161.794 20.875H157.685V24.178H162.067C162.215 24.178 162.327 24.217 162.405 24.2951C162.483 24.3731 162.522 24.4815 162.522 24.6202C162.522 24.7676 162.483 24.8803 162.405 24.9583C162.327 25.0363 162.215 25.0753 162.067 25.0753H157.23Z" fill="white"></path><path d="M70.2225 46.1076C69.0459 46.1076 67.987 45.8847 67.0458 45.4388C66.1045 44.9806 65.3614 44.2622 64.8165 43.2838C64.2715 42.3054 63.9991 41.0298 63.9991 39.4569V39.0853C63.9991 37.9583 64.1601 36.9923 64.4821 36.1873C64.8041 35.3699 65.2438 34.7011 65.8011 34.1809C66.3708 33.6483 67.021 33.2582 67.7517 33.0105C68.4948 32.7504 69.2874 32.6204 70.1296 32.6204C70.8727 32.6204 71.5663 32.7071 72.2103 32.8805C72.8543 33.0539 73.424 33.3263 73.9194 33.6979C74.4272 34.0571 74.8421 34.5215 75.1641 35.0912C75.4985 35.6609 75.709 36.3421 75.7957 37.1347H72.3217C72.2227 36.6641 72.0493 36.3049 71.8016 36.0572C71.5663 35.8095 71.3 35.6423 71.0028 35.5556C70.7179 35.4565 70.4269 35.407 70.1296 35.407C69.6094 35.407 69.145 35.5247 68.7363 35.76C68.34 35.9829 68.0242 36.3606 67.7889 36.8932C67.5659 37.4258 67.4545 38.1565 67.4545 39.0853V39.4569C67.4545 40.1504 67.5226 40.7449 67.6588 41.2403C67.7951 41.7233 67.9808 42.1196 68.2161 42.4293C68.4638 42.7389 68.7549 42.968 69.0893 43.1166C69.4361 43.2529 69.8138 43.321 70.2225 43.321C70.6807 43.321 71.1142 43.2467 71.5229 43.0981C71.9316 42.9371 72.2722 42.6894 72.5447 42.355C72.8171 42.0206 72.9596 41.5933 72.972 41.0731H70.594V38.9553H76.0744V39.8284C76.0744 40.9431 75.9258 41.8967 75.6285 42.6894C75.3437 43.482 74.9412 44.1322 74.421 44.64C73.9008 45.1478 73.2816 45.5193 72.5633 45.7546C71.8573 45.9899 71.0771 46.1076 70.2225 46.1076ZM83.419 46.1076C82.5644 46.1076 81.7532 45.9837 80.9853 45.736C80.2299 45.4883 79.5611 45.0982 78.979 44.5657C78.3969 44.0331 77.9387 43.3458 77.6043 42.5036C77.2699 41.649 77.1027 40.6335 77.1027 39.4569V39.0853C77.1027 37.9459 77.2699 36.9675 77.6043 36.1501C77.9387 35.3327 78.3969 34.6639 78.979 34.1437C79.5611 33.6236 80.2299 33.2396 80.9853 32.9919C81.7532 32.7442 82.5644 32.6204 83.419 32.6204C84.2859 32.6204 85.0971 32.7442 85.8526 32.9919C86.6081 33.2396 87.2769 33.6236 87.859 34.1437C88.4411 34.6639 88.8993 35.3327 89.2337 36.1501C89.5681 36.9675 89.7353 37.9459 89.7353 39.0853V39.4569C89.7353 40.6335 89.5681 41.649 89.2337 42.5036C88.8993 43.3458 88.4411 44.0331 87.859 44.5657C87.2769 45.0982 86.6081 45.4883 85.8526 45.736C85.0971 45.9837 84.2859 46.1076 83.419 46.1076ZM83.4004 43.321C83.9082 43.321 84.3788 43.2095 84.8123 42.9866C85.2458 42.7513 85.5925 42.3612 85.8526 41.8162C86.1251 41.2589 86.2613 40.4724 86.2613 39.4569V39.0853C86.2613 38.1193 86.1251 37.37 85.8526 36.8375C85.5925 36.3049 85.2458 35.9334 84.8123 35.7228C84.3788 35.5123 83.9082 35.407 83.4004 35.407C82.9174 35.407 82.4592 35.5123 82.0257 35.7228C81.5922 35.9334 81.2392 36.3049 80.9668 36.8375C80.6943 37.37 80.5581 38.1193 80.5581 39.0853V39.4569C80.5581 40.4724 80.6943 41.2589 80.9668 41.8162C81.2392 42.3612 81.5922 42.7513 82.0257 42.9866C82.4592 43.2095 82.9174 43.321 83.4004 43.321ZM97.1576 46.1076C96.303 46.1076 95.4918 45.9837 94.7239 45.736C93.9684 45.4883 93.2997 45.0982 92.7176 44.5657C92.1355 44.0331 91.6772 43.3458 91.3428 42.5036C91.0084 41.649 90.8412 40.6335 90.8412 39.4569V39.0853C90.8412 37.9459 91.0084 36.9675 91.3428 36.1501C91.6772 35.3327 92.1355 34.6639 92.7176 34.1437C93.2997 33.6236 93.9684 33.2396 94.7239 32.9919C95.4918 32.7442 96.303 32.6204 97.1576 32.6204C98.0245 32.6204 98.8357 32.7442 99.5912 32.9919C100.347 33.2396 101.015 33.6236 101.598 34.1437C102.18 34.6639 102.638 35.3327 102.972 36.1501C103.307 36.9675 103.474 37.9459 103.474 39.0853V39.4569C103.474 40.6335 103.307 41.649 102.972 42.5036C102.638 43.3458 102.18 44.0331 101.598 44.5657C101.015 45.0982 100.347 45.4883 99.5912 45.736C98.8357 45.9837 98.0245 46.1076 97.1576 46.1076ZM97.139 43.321C97.6468 43.321 98.1174 43.2095 98.5509 42.9866C98.9843 42.7513 99.3311 42.3612 99.5912 41.8162C99.8637 41.2589 99.9999 40.4724 99.9999 39.4569V39.0853C99.9999 38.1193 99.8637 37.37 99.5912 36.8375C99.3311 36.3049 98.9843 35.9334 98.5509 35.7228C98.1174 35.5123 97.6468 35.407 97.139 35.407C96.656 35.407 96.1977 35.5123 95.7643 35.7228C95.3308 35.9334 94.9778 36.3049 94.7053 36.8375C94.4329 37.37 94.2966 38.1193 94.2966 39.0853V39.4569C94.2966 40.4724 94.4329 41.2589 94.7053 41.8162C94.9778 42.3612 95.3308 42.7513 95.7643 42.9866C96.1977 43.2095 96.656 43.321 97.139 43.321ZM110.803 46.1076C109.627 46.1076 108.568 45.8847 107.627 45.4388C106.685 44.9806 105.942 44.2622 105.397 43.2838C104.852 42.3054 104.58 41.0298 104.58 39.4569V39.0853C104.58 37.9583 104.741 36.9923 105.063 36.1873C105.385 35.3699 105.825 34.7011 106.382 34.1809C106.952 33.6483 107.602 33.2582 108.332 33.0105C109.076 32.7504 109.868 32.6204 110.71 32.6204C111.453 32.6204 112.147 32.7071 112.791 32.8805C113.435 33.0539 114.005 33.3263 114.5 33.6979C115.008 34.0571 115.423 34.5215 115.745 35.0912C116.079 35.6609 116.29 36.3421 116.376 37.1347H112.902C112.803 36.6641 112.63 36.3049 112.382 36.0572C112.147 35.8095 111.881 35.6423 111.583 35.5556C111.299 35.4565 111.008 35.407 110.71 35.407C110.19 35.407 109.726 35.5247 109.317 35.76C108.921 35.9829 108.605 36.3606 108.37 36.8932C108.147 37.4258 108.035 38.1565 108.035 39.0853V39.4569C108.035 40.1504 108.103 40.7449 108.24 41.2403C108.376 41.7233 108.562 42.1196 108.797 42.4293C109.045 42.7389 109.336 42.968 109.67 43.1166C110.017 43.2529 110.395 43.321 110.803 43.321C111.261 43.321 111.695 43.2467 112.104 43.0981C112.512 42.9371 112.853 42.6894 113.125 42.355C113.398 42.0206 113.54 41.5933 113.553 41.0731H111.175V38.9553H116.655V39.8284C116.655 40.9431 116.507 41.8967 116.209 42.6894C115.924 43.482 115.522 44.1322 115.002 44.64C114.482 45.1478 113.862 45.5193 113.144 45.7546C112.438 45.9899 111.658 46.1076 110.803 46.1076ZM118.148 45.8661V32.8619H121.492V43.1166H127.065V45.8661H118.148ZM128.185 45.8661V32.8619H137.66V35.4256H131.529V37.9707H137.103V40.3858H131.529V43.3024H137.66V45.8661H128.185ZM143.308 45.8661V32.8619H148.602C149.816 32.8619 150.813 33.0415 151.593 33.4006C152.374 33.7474 152.95 34.2552 153.321 34.924C153.705 35.5804 153.897 36.373 153.897 37.3019C153.897 38.2184 153.705 39.011 153.321 39.6798C152.95 40.3486 152.374 40.8626 151.593 41.2217C150.813 41.5685 149.816 41.7419 148.602 41.7419H146.652V45.8661H143.308ZM146.652 38.9924H148.231C149.085 38.9924 149.686 38.85 150.033 38.5652C150.38 38.2803 150.553 37.8592 150.553 37.3019C150.553 36.7446 150.38 36.3235 150.033 36.0386C149.686 35.7538 149.085 35.6114 148.231 35.6114H146.652V38.9924ZM155.196 45.8661V32.8619H158.54V43.1166H164.113V45.8661H155.196ZM164.463 45.8661L169.219 32.8619H172.563L177.3 45.8661H173.77L172.879 43.3767H168.532L167.64 45.8661H164.463ZM169.479 40.813H171.931L170.705 36.9489L169.479 40.813ZM180.347 45.8661V40.9988L175.535 32.8619H179.399L182.112 37.692L184.675 32.8619H188.168L183.709 40.9988V45.8661H180.347Z" fill="white"></path><path d="M38.1345 26.7198L21.6971 10.2559L42.6106 22.2486L38.1345 26.7198V26.7198ZM17.4072 9.2887C16.439 9.79459 15.791 10.7171 15.791 11.9149V44.7462C15.791 45.944 16.439 46.8665 17.4072 47.3724L36.5183 28.3268L17.4072 9.2887ZM49.0753 26.0726L44.6885 23.5357L39.7953 28.3343L44.6885 33.1328L49.1647 30.5959C50.5053 29.532 50.5053 27.1365 49.0753 26.0726V26.0726ZM21.6971 46.4127L42.6106 34.4199L38.1345 29.9487L21.6971 46.4127Z" fill="white"></path></svg> 